<svg width="971" height="143" viewBox="0 0 971 143" fill="none" xmlns="http://www.w3.org/2000/svg">
<path d="M427.861 52.0557C430.511 52.0557 432.987 52.4206 435.291 53.1504C437.595 53.8802 439.687 55.0134 441.568 56.5498C443.488 58.0478 445.101 59.9685 446.406 62.3115H446.464V53.2656H460.805V112.554C460.805 118.815 459.557 123.885 457.062 127.765C454.566 131.644 451.148 134.487 446.81 136.292C442.471 138.097 437.556 139 432.065 139C426.728 139 422.101 138.213 418.185 136.638C414.307 135.101 411.216 132.892 408.912 130.012C406.608 127.131 405.188 123.712 404.65 119.756H418.876C419.337 121.484 420.182 122.944 421.41 124.135C422.639 125.325 424.155 126.228 425.96 126.843C427.765 127.457 429.8 127.765 432.065 127.765C436.596 127.765 440.11 126.535 442.605 124.077C445.14 121.619 446.406 118.066 446.406 113.418V104.142H446.349C445.043 106.523 443.469 108.482 441.626 110.019C439.783 111.555 437.71 112.688 435.406 113.418C433.141 114.148 430.664 114.513 427.977 114.513C422.716 114.513 418.089 113.188 414.096 110.537C410.141 107.887 407.069 104.218 404.881 99.5322C402.731 94.846 401.655 89.4684 401.655 83.3994C401.655 77.2152 402.75 71.7799 404.938 67.0938C407.127 62.3692 410.199 58.6816 414.153 56.0312C418.108 53.3809 422.678 52.0557 427.861 52.0557ZM112.22 53.6934C115.837 53.6934 119.219 54.2444 122.364 55.3457C125.509 56.447 128.183 57.9807 130.385 59.9473C132.587 61.8353 134.159 64.0778 135.103 66.6738L123.071 72.1016C122.442 70.2922 121.027 68.8762 118.825 67.8535C116.702 66.8309 114.461 66.3193 112.102 66.3193C109.664 66.3194 107.777 66.8309 106.44 67.8535C105.182 68.8762 104.553 70.2922 104.553 72.1016C104.553 73.2815 105.143 74.2651 106.322 75.0518C107.502 75.8383 109.271 76.507 111.63 77.0576L118.943 78.9453C122.797 79.8893 125.903 81.3844 128.262 83.4297C130.621 85.475 132.351 87.7562 133.452 90.2734C134.553 92.7906 135.102 95.2685 135.103 97.707C135.103 101.247 134.081 104.394 132.036 107.147C129.992 109.822 127.2 111.907 123.661 113.401C120.201 114.817 116.23 115.525 111.748 115.525C107.895 115.525 104.317 114.935 101.015 113.755C97.7119 112.575 94.841 110.924 92.4033 108.8C89.9657 106.597 88.079 104.001 86.7422 101.012L99.127 95.4658C100.306 97.4323 101.958 99.1627 104.081 100.657C106.283 102.073 108.799 102.781 111.63 102.781C114.382 102.781 116.584 102.349 118.235 101.483C119.887 100.539 120.713 99.2416 120.713 97.5898C120.713 96.0165 120.044 94.797 118.707 93.9316C117.449 93.0664 115.68 92.3583 113.399 91.8076L107.974 90.3916C102.391 88.8969 97.9868 86.5763 94.7627 83.4297C91.5386 80.2044 89.9268 76.5457 89.9268 72.4551C89.9268 66.4767 91.8531 61.8747 95.7061 58.6494C99.5592 55.3455 105.064 53.6934 112.22 53.6934ZM338.629 30.0938C343.976 30.0938 348.616 30.8798 352.548 32.4531C356.48 34.0265 359.743 36.2295 362.338 39.0615C365.012 41.8149 367.056 45.0795 368.472 48.8555L353.964 53.3389C352.942 50.4284 351.054 47.99 348.302 46.0234C345.55 44.0568 342.129 43.0733 338.04 43.0732C333.872 43.0732 330.57 44.0568 328.132 46.0234C325.773 47.9901 324.593 50.7432 324.593 54.2832C324.593 57.1152 325.537 59.3183 327.424 60.8916C329.311 62.4648 331.867 63.6835 335.091 64.5488L345.589 67.1455C352.902 68.8762 358.524 71.983 362.456 76.4668C366.466 80.9507 368.472 85.8676 368.472 91.2168C368.472 96.0155 367.292 100.264 364.933 103.961C362.652 107.58 359.271 110.412 354.789 112.457C350.385 114.502 344.998 115.525 338.629 115.525C334.383 115.525 330.451 115.014 326.834 113.991C323.217 112.969 320.032 111.552 317.279 109.743C314.527 107.934 312.247 105.889 310.438 103.607C308.63 101.326 307.411 98.9265 306.782 96.4092L321.408 92.043C322.43 94.7963 324.318 97.2354 327.07 99.3594C329.901 101.404 333.4 102.466 337.567 102.545C342.207 102.624 345.943 101.68 348.773 99.7129C351.604 97.6676 353.019 94.9933 353.02 91.6895C353.02 88.8576 351.84 86.4973 349.481 84.6094C347.201 82.7214 344.095 81.2658 340.163 80.2432L329.665 77.5293C325.733 76.5066 322.234 75.0116 319.167 73.0449C316.1 70.9996 313.702 68.443 311.972 65.375C310.242 62.3071 309.377 58.7668 309.377 54.7549C309.377 46.9671 311.893 40.9096 316.926 36.583C322.037 32.2565 329.272 30.0938 338.629 30.0938ZM623.616 30.0938C628.963 30.0938 633.603 30.8799 637.534 32.4531C641.466 34.0265 644.73 36.2295 647.325 39.0615C649.999 41.8148 652.043 45.0796 653.458 48.8555L638.95 53.3389C637.928 50.4283 636.04 47.99 633.288 46.0234C630.536 44.0568 627.115 43.0733 623.026 43.0732C618.859 43.0732 615.556 44.0568 613.118 46.0234C610.759 47.9901 609.579 50.7433 609.579 54.2832C609.579 57.1152 610.523 59.3183 612.41 60.8916C614.297 62.4649 616.853 63.6835 620.077 64.5488L630.575 67.1455C637.888 68.8761 643.511 71.983 647.442 76.4668C651.453 80.9507 653.458 85.8676 653.458 91.2168C653.458 96.0153 652.279 100.264 649.92 103.961C647.639 107.58 644.258 110.412 639.775 112.457C635.372 114.502 629.986 115.525 623.616 115.525C619.37 115.525 615.438 115.014 611.82 113.991C608.203 112.969 605.019 111.552 602.267 109.743C599.514 107.934 597.233 105.889 595.425 103.607C593.616 101.326 592.398 98.9265 591.769 96.4092L606.395 92.043C607.417 94.7963 609.304 97.2354 612.057 99.3594C614.888 101.405 618.387 102.466 622.555 102.545C627.194 102.624 630.929 101.68 633.76 99.7129C636.591 97.6676 638.007 94.9934 638.007 91.6895C638.007 88.8575 636.827 86.4974 634.468 84.6094C632.187 82.7214 629.081 81.2658 625.149 80.2432L614.651 77.5293C610.72 76.5066 607.22 75.0116 604.153 73.0449C601.087 70.9996 598.688 68.4429 596.958 65.375C595.228 62.3071 594.363 58.7667 594.363 54.7549C594.363 46.9671 596.88 40.9096 601.912 36.583C607.023 32.2563 614.259 30.0938 623.616 30.0938ZM948.117 53.6934C951.734 53.6934 955.115 54.2444 958.261 55.3457C961.406 56.447 964.08 57.9806 966.282 59.9473C968.484 61.8352 970.056 64.0779 971 66.6738L958.969 72.1016C958.34 70.2923 956.924 68.8762 954.723 67.8535C952.599 66.8308 950.358 66.3193 947.999 66.3193C945.561 66.3193 943.674 66.8309 942.337 67.8535C941.079 68.8762 940.45 70.2924 940.45 72.1016C940.45 73.2815 941.04 74.2651 942.22 75.0518C943.399 75.8383 945.169 76.507 947.527 77.0576L954.841 78.9453C958.694 79.8893 961.8 81.3844 964.159 83.4297C966.518 85.4749 968.248 87.7562 969.349 90.2734C970.449 92.7906 971 95.2685 971 97.707C971 101.247 969.978 104.394 967.934 107.147C965.889 109.822 963.097 111.907 959.559 113.401C956.099 114.817 952.128 115.525 947.646 115.525C943.792 115.525 940.214 114.935 936.911 113.755C933.609 112.575 930.738 110.924 928.301 108.8C925.863 106.597 923.975 104.001 922.639 101.012L935.024 95.4658C936.204 97.4323 937.856 99.1627 939.979 100.657C942.18 102.073 944.697 102.781 947.527 102.781C950.28 102.781 952.482 102.349 954.133 101.483C955.784 100.539 956.609 99.2416 956.609 97.5898C956.609 96.0166 955.941 94.797 954.604 93.9316C953.346 93.0664 951.577 92.3583 949.297 91.8076L943.871 90.3916C938.288 88.897 933.884 86.5762 930.66 83.4297C927.436 80.2044 925.823 76.5457 925.823 72.4551C925.823 66.4766 927.75 61.8747 931.604 58.6494C935.457 55.3454 940.961 53.6934 948.117 53.6934ZM887.671 51.8828C893.661 51.8828 898.902 53.2272 903.395 55.916C907.887 58.6048 911.381 62.3499 913.877 67.1514C916.411 71.9144 917.678 77.4457 917.678 83.7451C917.678 90.0446 916.411 95.5759 913.877 100.339C911.381 105.102 907.887 108.828 903.395 111.517C898.902 114.167 893.661 115.492 887.671 115.492C881.72 115.492 876.479 114.167 871.948 111.517C867.456 108.828 863.942 105.102 861.408 100.339C858.912 95.5758 857.664 90.0446 857.664 83.7451C857.664 77.4456 858.912 71.9144 861.408 67.1514C863.942 62.35 867.456 58.6048 871.948 55.916C876.479 53.2274 881.72 51.8829 887.671 51.8828ZM240.815 52.0557C243.465 52.0557 245.941 52.4206 248.245 53.1504C250.587 53.8418 252.7 54.9173 254.581 56.377C256.462 57.7982 258.017 59.5844 259.246 61.7354H259.477V53.2656H273.702V114.109H259.477V104.948H259.304C258.037 107.253 256.462 109.174 254.581 110.71C252.738 112.246 250.664 113.399 248.36 114.167C246.057 114.935 243.58 115.319 240.931 115.319C235.671 115.319 231.044 113.994 227.051 111.344C223.096 108.693 220.024 104.987 217.835 100.224C215.685 95.4606 214.61 89.9293 214.61 83.6299C214.61 77.4073 215.704 71.9143 217.893 67.1514C220.081 62.3883 223.154 58.6816 227.108 56.0312C231.063 53.381 235.632 52.0557 240.815 52.0557ZM713.24 88.9883C713.24 93.444 714.316 96.8242 716.466 99.1289C718.654 101.434 721.668 102.586 725.508 102.586C728.08 102.586 730.366 102.067 732.362 101.03C734.359 99.9932 735.933 98.3798 737.085 96.1904C738.237 93.9626 738.812 91.12 738.812 87.6631V53.2656H753.384V114.109H739.101V104.643C737.556 107.22 735.733 109.358 733.629 111.056C730.096 113.898 725.681 115.319 720.382 115.319C716.158 115.319 712.415 114.417 709.151 112.611C705.888 110.768 703.334 108.06 701.491 104.487C699.648 100.877 698.727 96.4785 698.727 91.293V53.2656H713.24V88.9883ZM821.852 114.109H807.567V104.833H807.452C806.185 107.176 804.611 109.135 802.729 110.71C800.887 112.246 798.794 113.399 796.452 114.167C794.148 114.935 791.672 115.319 789.022 115.319C783.762 115.319 779.135 113.994 775.142 111.344C771.187 108.693 768.115 104.987 765.927 100.224C763.777 95.4606 762.701 89.9293 762.701 83.6299C762.701 77.4072 763.796 71.9144 765.984 67.1514C768.173 62.3885 771.245 58.6816 775.199 56.0312C779.154 53.3809 783.724 52.0557 788.907 52.0557C791.557 52.0557 794.014 52.4206 796.279 53.1504C798.583 53.8418 800.656 54.9174 802.499 56.377C804.342 57.8366 805.917 59.6803 807.223 61.9082H807.338V28.2598H821.852V114.109ZM81.9678 114.109H64.7646L60.8516 96.2344H39.5811L35.3516 80.3594H58.9375L50.6572 46.6094L17.4932 114.109H0L42.6143 29.1094H62.3564L81.9678 114.109ZM156.979 53.2656H169.419V64.9619H156.979V96.6514C156.979 98.8024 157.42 100.3 158.303 101.146C159.186 101.991 160.818 102.413 163.198 102.413H169.419V114.109H160.664C154.444 114.109 149.856 112.861 146.899 110.364C143.943 107.829 142.464 103.969 142.464 98.7832V36.6719H156.979V53.2656ZM206.711 52.6895C207.709 52.6895 208.592 52.7087 209.36 52.7471C210.167 52.7855 210.858 52.8431 211.434 52.9199V65.8262C210.934 65.7494 210.032 65.6533 208.727 65.5381C207.421 65.4229 206.039 65.3652 204.58 65.3652C202.315 65.3652 200.242 65.9031 198.36 66.9785C196.517 68.0156 195.038 69.5905 193.925 71.7031C192.85 73.8157 192.312 76.4662 192.312 79.6543V114.109H177.799V53.2656H191.794V63.3486H191.967C193.08 59.8532 194.827 57.2028 197.208 55.3975C199.627 53.5922 202.795 52.6895 206.711 52.6895ZM298.276 114.109H283.763V28.2598H298.276V114.109ZM392.477 114.109H377.962V53.2656H392.477V114.109ZM486.961 62.3066C488.443 59.9033 490.171 57.9074 492.145 56.3193C495.715 53.4769 500.131 52.0557 505.392 52.0557C509.653 52.0557 513.416 52.9776 516.68 54.8213C519.943 56.6266 522.497 59.3154 524.34 62.8877C526.183 66.46 527.104 70.8581 527.104 76.082V114.109H512.533V78.3867C512.533 73.931 511.458 70.5508 509.308 68.2461C507.196 65.9415 504.182 64.7891 500.266 64.7891C497.731 64.7891 495.465 65.3076 493.469 66.3447C491.472 67.3818 489.879 68.9952 488.688 71.1846C487.537 73.374 486.961 76.2165 486.961 79.7119V114.109H472.447V28.2598H486.961V62.3066ZM552.317 53.2656H564.758V64.9619H552.317V96.6514C552.317 98.8024 552.759 100.3 553.643 101.146C554.526 101.99 556.158 102.413 558.538 102.413H564.758V114.109H556.004C549.784 114.109 545.195 112.861 542.238 110.364C539.282 107.829 537.804 103.969 537.804 98.7832V36.6719H552.317V53.2656ZM677.255 53.2656H689.695V64.9619H677.255V96.6514C677.255 98.8024 677.696 100.3 678.579 101.146C679.462 101.991 681.094 102.413 683.475 102.413H689.695V114.109H680.94C674.72 114.109 670.132 112.861 667.176 110.364C664.219 107.829 662.74 103.969 662.74 98.7832V36.6719H677.255V53.2656ZM848.628 114.109H834.114V53.2656H848.628V114.109ZM887.671 64.04C884.561 64.0401 881.854 64.8469 879.551 66.46C877.247 68.0348 875.461 70.3012 874.194 73.2588C872.966 76.1781 872.351 79.6735 872.351 83.7451C872.351 87.8167 872.966 91.3122 874.194 94.2314C875.461 97.1507 877.247 99.3978 879.551 100.973C881.854 102.547 884.561 103.335 887.671 103.335C890.781 103.335 893.469 102.548 895.734 100.973C898.038 99.3978 899.805 97.1507 901.033 94.2314C902.3 91.2738 902.934 87.7783 902.934 83.7451C902.934 79.6735 902.3 76.1781 901.033 73.2588C899.805 70.3011 898.038 68.0348 895.734 66.46C893.469 64.8467 890.781 64.04 887.671 64.04ZM244.329 64.0977C241.373 64.0977 238.761 64.8659 236.496 66.4023C234.231 67.9004 232.464 70.1091 231.197 73.0283C229.93 75.9092 229.297 79.4431 229.297 83.6299C229.297 87.8167 229.93 91.3698 231.197 94.2891C232.464 97.2083 234.231 99.417 236.496 100.915C238.761 102.413 241.373 103.162 244.329 103.162C247.516 103.162 250.281 102.375 252.623 100.8C254.965 99.1866 256.788 96.9201 258.094 94.001C259.399 91.0433 260.053 87.5863 260.053 83.6299C260.053 79.6735 259.399 76.2357 258.094 73.3164C256.788 70.3973 254.965 68.1308 252.623 66.5176C250.281 64.9043 247.516 64.0977 244.329 64.0977ZM792.42 64.0977C789.464 64.0977 786.853 64.8661 784.588 66.4023C782.323 67.9004 780.556 70.1091 779.289 73.0283C778.022 75.9092 777.389 79.443 777.389 83.6299C777.389 87.8167 778.022 91.3698 779.289 94.2891C780.556 97.2083 782.323 99.417 784.588 100.915C786.853 102.413 789.464 103.162 792.42 103.162C795.607 103.162 798.372 102.375 800.714 100.8C803.056 99.1865 804.88 96.9202 806.186 94.001C807.491 91.0433 808.144 87.5863 808.144 83.6299C808.144 79.6735 807.491 76.2357 806.186 73.3164C804.88 70.3971 803.056 68.1309 800.714 66.5176C798.372 64.9043 795.607 64.0977 792.42 64.0977ZM431.374 63.9248C428.418 63.9248 425.806 64.6739 423.541 66.1719C421.276 67.6699 419.509 69.8595 418.242 72.7402C416.975 75.5827 416.342 79.0782 416.342 83.2266C416.342 87.3365 416.975 90.8321 418.242 93.7129C419.509 96.5937 421.276 98.7832 423.541 100.281C425.806 101.779 428.418 102.528 431.374 102.528C434.561 102.528 437.326 101.741 439.668 100.166C442.01 98.5527 443.834 96.3056 445.14 93.4248C446.445 90.5056 447.098 87.1061 447.098 83.2266C447.098 79.3086 446.445 75.9092 445.14 73.0283C443.834 70.1475 442.01 67.9196 439.668 66.3447C437.326 64.7314 434.561 63.9248 431.374 63.9248ZM385.161 27.6836C387.657 27.6836 389.731 28.471 391.382 30.0459C393.033 31.6208 393.858 33.599 393.858 35.9805C393.858 38.3236 393.033 40.2826 391.382 41.8574C389.731 43.4323 387.676 44.2197 385.219 44.2197C382.723 44.2196 380.65 43.4322 378.999 41.8574C377.348 40.2441 376.522 38.266 376.522 35.9229C376.522 33.5798 377.348 31.6208 378.999 30.0459C380.65 28.4711 382.704 27.6837 385.161 27.6836ZM841.313 27.6836C843.809 27.6836 845.882 28.4712 847.533 30.0459C849.184 31.6208 850.01 33.599 850.01 35.9805C850.01 38.3236 849.184 40.2826 847.533 41.8574C845.882 43.4321 843.828 44.2197 841.371 44.2197C838.875 44.2197 836.801 43.4323 835.15 41.8574C833.499 40.2442 832.674 38.2659 832.674 35.9229C832.674 33.5798 833.499 31.6207 835.15 30.0459C836.801 28.471 838.856 27.6836 841.313 27.6836Z" fill="white"/>
</svg>
